<svg xmlns="http://www.w3.org/2000/svg">
<defs><style>.icon { display: none; }.icon:target { display: inline; }
</style>
</defs>
<symbol id="letter" viewBox="0 0 512 512">
<g>
  <path
          d="M48 64C21.5 64 0 85.5 0 112c0 15.1 7.1 29.3 19.2 38.4L236.8 313.6c11.4 8.5 27 8.5 38.4 0L492.8 150.4c12.1-9.1 19.2-23.3 19.2-38.4c0-26.5-21.5-48-48-48H48zM0 176V384c0 35.3 28.7 64 64 64H448c35.3 0 64-28.7 64-64V176L294.4 339.2c-22.8 17.1-54 17.1-76.8 0L0 176z"/>
</g>
</symbol>
<symbol id="discord" viewBox="0 0 640 512">
<g>
  <path
        d="M524.531,69.836a1.5,1.5,0,0,0-.764-.7A485.065,485.065,0,0,0,404.081,32.03a1.816,1.816,0,0,0-1.923.91,337.461,337.461,0,0,0-14.9,30.6,447.848,447.848,0,0,0-134.426,0,309.541,309.541,0,0,0-15.135-30.6,1.89,1.89,0,0,0-1.924-.91A483.689,483.689,0,0,0,116.085,69.137a1.712,1.712,0,0,0-.788.676C39.068,183.651,18.186,294.69,28.43,404.354a2.016,2.016,0,0,0,.765,1.375A487.666,487.666,0,0,0,176.02,479.918a1.9,1.9,0,0,0,2.063-.676A348.2,348.2,0,0,0,208.12,430.4a1.86,1.86,0,0,0-1.019-2.588,321.173,321.173,0,0,1-45.868-21.853,1.885,1.885,0,0,1-.185-3.126c3.082-2.309,6.166-4.711,9.109-7.137a1.819,1.819,0,0,1,1.9-.256c96.229,43.917,200.41,43.917,295.5,0a1.812,1.812,0,0,1,1.924.233c2.944,2.426,6.027,4.851,9.132,7.16a1.884,1.884,0,0,1-.162,3.126,301.407,301.407,0,0,1-45.89,21.83,1.875,1.875,0,0,0-1,2.611,391.055,391.055,0,0,0,30.014,48.815,1.864,1.864,0,0,0,2.063.7A486.048,486.048,0,0,0,610.7,405.729a1.882,1.882,0,0,0,.765-1.352C623.729,277.594,590.933,167.465,524.531,69.836ZM222.491,337.58c-28.972,0-52.844-26.587-52.844-59.239S193.056,219.1,222.491,219.1c29.665,0,53.306,26.82,52.843,59.239C275.334,310.993,251.924,337.58,222.491,337.58Zm195.38,0c-28.971,0-52.843-26.587-52.843-59.239S388.437,219.1,417.871,219.1c29.667,0,53.307,26.82,52.844,59.239C470.715,310.993,447.538,337.58,417.871,337.58Z" />
</g>
</symbol>

<symbol id="github" viewBox="0 0 16 16">
<g>
<path fill-rule="evenodd" d="M8 0C3.58 0 0 3.58 0 8c0 3.54 2.29 6.53 5.47 7.59.4.07.55-.17.55-.38 0-.19-.01-.82-.01-1.49-2.01.37-2.53-.49-2.69-.94-.09-.23-.48-.94-.82-1.13-.28-.15-.68-.52-.01-.53.63-.01 1.08.58 1.23.82.72 1.21 1.87.87 2.33.66.07-.52.28-.87.51-1.07-1.78-.2-3.64-.89-3.64-3.95 0-.87.31-1.59.82-2.15-.08-.2-.36-1.02.08-2.12 0 0 .67-.21 2.2.82.64-.18 1.32-.27 2-.27.68 0 1.36.09 2 .27 1.53-1.04 2.2-.82 2.2-.82.44 1.1.16 1.92.08 2.12.51.56.82 1.27.82 2.15 0 3.07-1.87 3.75-3.65 3.95.29.25.54.73.54 1.48 0 1.07-.01 1.93-.01 2.2 0 .21.15.46.55.38A8.013 8.013 0 0016 8c0-4.42-3.58-8-8-8z"></path>
</g>

</symbol>

<symbol id="kata" viewBox="0 0 660 660">
  <path d="M321.7 550.8a21 21 0 0112.2-3.6 21 21 0 0117.7 10.5 24.1 24.1 0 0117.8-7.2 24 24 0 0115.7 6.3 26.6 26.6 0 0126.3-19.7 26.5 26.5 0 019.7 2.1v.6c.4-15.7 13-28.2 28.4-28.7a35.5 35.5 0 01-3.3-19.7c1.5-12.3 9.1-22.4 19.4-27.7l.1.1c-5.3-5.5-8.5-13-8.3-21.3a29.6 29.6 0 016.2-17.5 27.3 27.3 0 01-12.1-33.5 24.5 24.5 0 01-22-25 24.7 24.7 0 01.3-3.8 19.8 19.8 0 01-4.2.4 19.8 19.8 0 01-18.7-15.3 17.7 17.7 0 01-10.3 3c-8.2-.3-15-6-16.8-13.7a11.2 11.2 0 01-5.8 1.4 11.2 11.2 0 01-4.8-1.2v-.2a36.4 36.4 0 01-9.7 16 11.2 11.2 0 015.2 5 11.3 11.3 0 01-.2 10.6 17.8 17.8 0 018.8 29.8 19.7 19.7 0 019.6 9c5 9.7 1.1 21.6-8.6 26.6a24.5 24.5 0 015.3 7c6.2 12.1 1.5 27-10.6 33a24.6 24.6 0 01-6 2.2v.1a27.3 27.3 0 01-11.8 36.8 27.1 27.1 0 01-14.7 2.9 29.7 29.7 0 01-17.7 29 17.2 17.2 0 013 5.6.7.7 0 01-.1 0z"/>
  <path d="M623.8 10H38.7A28.7 28.7 0 0010 38.7v577.5a28.7 28.7 0 0028.7 28.7h585.1a28.7 28.7 0 0028.7-28.7V38.7A28.7 28.7 0 00623.8 10zm-26.5 388.8c-3.8 6-9.8 10-16.2 11.6a24.2 24.2 0 01-21.5 39.7 21.8 21.8 0 00-.2-1.1 21 21 0 01-28.8 23.4 17.1 17.1 0 01-2.6 7.5c-2.7 4.3-7 7-11.5 7.7a35.6 35.6 0 01.6 12.2 35.7 35.7 0 01-39.6 31.3h1a29.4 29.4 0 011.5 10.2 29.5 29.5 0 01-30.2 28.7 29.4 29.4 0 01-12.6-3.2 26.6 26.6 0 01-45.4 15.6 24.2 24.2 0 01-45.1 2 21 21 0 01-34.1-13.2 17.1 17.1 0 01-7.8 1.7c-8.7-.2-15.8-7-16.6-15.5l.1-.2a35.5 35.5 0 01-16.9 14 35.7 35.7 0 01-46-18.9 29.4 29.4 0 01-8.2 6.2 29.5 29.5 0 01-39.6-12.8 29.3 29.3 0 01-3.3-12.6 26.6 26.6 0 01-35.3-32.4 24.2 24.2 0 01-23.4-38.6 21 21 0 01-4.7-36.3 17.1 17.1 0 01-5.2-6 17.2 17.2 0 01.3-16.3l.5.1a35.5 35.5 0 01-13.3-6.4 35.7 35.7 0 01-7-49.4 29.4 29.4 0 01-9.4-3.9 29.5 29.5 0 01-9-40.7 29.3 29.3 0 019.3-9.1 26.6 26.6 0 0110-47 24.2 24.2 0 0121.6-39.6l.1 1.1a21 21 0 0128.8-23.5 17.1 17.1 0 012.6-7.5c2.7-4.2 7-6.9 11.6-7.7a35.6 35.6 0 01-.7-12.1 35.7 35.7 0 0138.7-31.4 29.4 29.4 0 01-1.6-10.1c.5-16.3 14-29.2 30.2-28.7a29.3 29.3 0 0112.6 3.1 26.6 26.6 0 0145.4-15.5 24.2 24.2 0 0145.1-2.1 21 21 0 0134.1 13.2 17.1 17.1 0 017.8-1.6c8.8.2 15.8 7 16.7 15.4l-.2.3a35.4 35.4 0 0116.9-14.1c18-7.3 38.4 1.2 46 19A29.4 29.4 0 01451 99a29.5 29.5 0 0139.7 12.8 29.3 29.3 0 013.2 12.6 26.6 26.6 0 0135.4 32.5 24.2 24.2 0 0123.4 38.5 21 21 0 014.7 36.3 17.1 17.1 0 015.1 6 17.2 17.2 0 01-.3 16.4 35.5 35.5 0 0112.9 6.3 35.7 35.7 0 016.9 49.3 29.4 29.4 0 019.4 4 29.5 29.5 0 019 40.6 29.3 29.3 0 01-9.2 9.2 26.6 26.6 0 016.1 35.3z"/>
  <path d="M316.6 99.8a24.1 24.1 0 01-17.8 7.2 24 24 0 01-15.6-6.2 26.6 26.6 0 01-26.4 19.6 26.5 26.5 0 01-9.7-2 29.4 29.4 0 01-28.4 28 35.5 35.5 0 013.3 19.7 35.7 35.7 0 01-19.4 27.7c5.3 5.5 8.4 13 8.2 21.3a29.6 29.6 0 01-6.2 17.4c8.6 4.8 14.2 14 14 24.5a27.2 27.2 0 01-1.9 9 24.5 24.5 0 0122 25.1 24.7 24.7 0 01-.3 3.7 19.8 19.8 0 014.2-.3c9.2.2 16.8 6.7 18.8 15.3a17.7 17.7 0 0110.2-3c8.3.2 15 6 16.9 13.7a11.2 11.2 0 0110.2-.4 36.2 36.2 0 018.1-16.9 11.2 11.2 0 01-3.2-3.8 11.3 11.3 0 01.1-10.5A17.8 17.8 0 01295 259a19.7 19.7 0 01-9.6-9 19.8 19.8 0 0110.3-27.4 20 20 0 00-1.6.7 24.5 24.5 0 01-5.4-7 24.5 24.5 0 0116.7-35.2v-.1a27.3 27.3 0 0111.7-36.7 27.1 27.1 0 0114.8-3 29.7 29.7 0 0116-28.2 30 30 0 011.6-.7 17.2 17.2 0 01-2.9-5.6 21 21 0 01-12.2 3.5 21 21 0 01-17.7-10.6zm214.7 217a35.7 35.7 0 01-13.7-31c-7.4 1.7-15.5.6-22.4-3.9a29.6 29.6 0 01-11.8-14.3 27.3 27.3 0 01-28.1-.7 27.2 27.2 0 01-6.9-6.3c-7.6 10.2-21.9 13-32.8 6a24.8 24.8 0 01-3-2.2 19.8 19.8 0 01-1.8 3.8 19.8 19.8 0 01-22.8 8.1 17.7 17.7 0 01-2.8 10.3c-4.4 7-12.9 9.8-20.4 7.4a11.2 11.2 0 01-1.7 5.7c-.6.9-1.3 1.7-2 2.3a36.3 36.3 0 018.4 15.1 11.2 11.2 0 015-1.1 11.3 11.3 0 019.2 5.2 17.8 17.8 0 0130.4 6.5 19.7 19.7 0 0112.5-4.1c11 .2 19.5 9.3 19.3 20.2a19.8 19.8 0 01-.2 2l.2-1.9a24.5 24.5 0 018.7-1.4 24.5 24.5 0 0124 25.2 24.6 24.6 0 01-1 6.3c15.1.4 27 12.9 26.6 28a27.1 27.1 0 01-4.5 14.3A29.7 29.7 0 01517 444a29.7 29.7 0 01-2 9.7l.1-.2 2.7.5a21 21 0 013.3-12.3 21 21 0 0118.2-9.7 24.1 24.1 0 013-19 24 24 0 0113.5-10 26.6 26.6 0 01-3.3-32.8 26.5 26.5 0 016.9-7.2 29.4 29.4 0 01-9.4-38.9 35.5 35.5 0 01-18.6-7.3z"/>
  <path d="M532.7 236.4a17.2 17.2 0 012.2-2.9 21 21 0 01-8.9-9 21 21 0 01.8-20.6c-6.2-1.8-11.6-6-14.8-12.2a24 24 0 01-2-16.7 26.6 26.6 0 01-29.9-13.7 26.6 26.6 0 01-2.8-9.6 29.4 29.4 0 01-38.2-11.5 35.5 35.5 0 01-15.7 12.3 35.7 35.7 0 01-33.6-3.8v-.3a29.7 29.7 0 01-14.8 17.7 29.6 29.6 0 01-18.3 3 27.3 27.3 0 01-14.8 23.8 27.2 27.2 0 01-8.8 2.8c4.9 11.7 0 25.4-11.5 31.3a24.7 24.7 0 01-3.4 1.5 19.8 19.8 0 012.3 3.5c4.2 8.2 2.1 18-4.5 23.8a17.7 17.7 0 017.5 7.6c3.8 7.3 2 16-4 21.3a11.2 11.2 0 014.1 4.4c.5.9.8 1.8 1 2.7a36.3 36.3 0 0118-.4 11.3 11.3 0 011.5-3.8 11.3 11.3 0 019.1-5.2 17.8 17.8 0 0121.3-22.7 19.7 19.7 0 013-12.8c5.8-9.2 18-11.9 27.2-6a24.5 24.5 0 013.4-8.2 24.5 24.5 0 0134-7.5 24.5 24.5 0 014.8 4.1 27.3 27.3 0 0137.7-8.4 27.1 27.1 0 0110 11.3c9.5-6.4 22.3-7 32.5-.4a29.7 29.7 0 015.6 4.6zm-188 132a11.2 11.2 0 01-1.3-6.4 36.4 36.4 0 01-9 1.1c-3 0-5.9-.3-8.6-1a11.2 11.2 0 01-1.6 7.9 11.3 11.3 0 01-9.2 5.2 17.8 17.8 0 01-21.2 22.6 19.7 19.7 0 01-3 12.8 19.8 19.8 0 01-27.3 6 24.5 24.5 0 01-3.4 8.2 24.5 24.5 0 01-33.9 7.5 24.6 24.6 0 01-4.9-4.1v.1a27.3 27.3 0 01-37.7 8.3 27.1 27.1 0 01-10-11.2c-9.5 6.4-22.2 7-32.5.4a29.8 29.8 0 01-5.6-4.6 17.4 17.4 0 01-2.2 2.8 21 21 0 019 9 21 21 0 01-.9 20.6c6.2 1.8 11.7 6 14.8 12.2a24 24 0 012 16.7 26.6 26.6 0 0130 13.8 26.5 26.5 0 012.7 9.5 29.4 29.4 0 0138.3 11.5 35.5 35.5 0 0115.7-12.3c11.5-4.6 24-2.8 33.6 3.8a29.6 29.6 0 0114.7-17.4 29.6 29.6 0 0118.3-2.9c.1-9.7 5.5-19.1 14.8-23.9a27.3 27.3 0 018.9-2.8c-5-11.7 0-25.4 11.4-31.3a24.6 24.6 0 013.5-1.4 19.7 19.7 0 01-2.4-3.6c-4.2-8.2-2-17.9 4.5-23.7a17.7 17.7 0 01-7.5-7.6c-3.7-7.4-1.9-16.1 4-21.4a11.2 11.2 0 01-4-4.4z"/>
  <path d="M300.4 339.5a11.2 11.2 0 01-6.7 2 11.3 11.3 0 01-9.2-5.1 17.8 17.8 0 01-30.3-6.5 19.7 19.7 0 01-12.6 4c-10.9-.2-19.5-9.3-19.2-20.2a24.5 24.5 0 01-8.8 1.3 24.5 24.5 0 01-22.9-31.5h-.1c-15-.3-27-12.8-26.6-27.9a27.1 27.1 0 014.5-14.3 29.7 29.7 0 01-17.1-27.7 29.7 29.7 0 011.8-9.6 17.4 17.4 0 01-2.7-.5 21 21 0 01-3.3 12.3 21 21 0 01-18.2 9.7c1.6 6.3.7 13.1-3 19a24 24 0 01-13.4 10.1c8.3 8.7 10 22.2 3.2 32.8a26.5 26.5 0 01-6.8 7.2 29.4 29.4 0 019.4 38.8 35.5 35.5 0 0118.5 7.4 35.7 35.7 0 0113.7 30.9c7.5-1.7 15.5-.5 22.5 4a29.6 29.6 0 0111.7 14.2 27.3 27.3 0 0128.1.8 27.2 27.2 0 016.9 6.2c7.6-10.2 22-13 32.8-6a24.6 24.6 0 013 2.3 19.8 19.8 0 011.9-3.8c5-7.8 14.4-10.9 22.8-8.2A17.7 17.7 0 01283 371c4.5-7 13-9.7 20.4-7.3a11.2 11.2 0 016.6-10 36.4 36.4 0 01-9.6-14z"/>
</symbol>

  <symbol id="rsschool" viewBox="0 0 552.8 205.3">
    <title>rs_school_js</title>
    <path d="M285.4 68l26.3-1.7c.6 4.3 1.7 7.5 3.5 9.8 2.9 3.6 6.9 5.4 12.2 5.4 3.9 0 7-.9 9.1-2.8 2-1.5 3.2-3.9 3.2-6.4 0-2.4-1.1-4.7-3-6.2-2-1.8-6.7-3.6-14.1-5.2-12.1-2.7-20.8-6.3-25.9-10.9-5.1-4.3-8-10.6-7.8-17.3 0-4.6 1.4-9.2 4-13 3-4.3 7.1-7.7 12-9.6 5.3-2.3 12.7-3.5 22-3.5 11.4 0 20.1 2.1 26.1 6.4 6 4.2 9.6 11 10.7 20.3l-26 1.5c-.7-4-2.1-6.9-4.4-8.8s-5.3-2.8-9.2-2.8c-3.2 0-5.6.7-7.2 2-1.5 1.2-2.5 3-2.4 5 0 1.5.8 2.9 2 3.8 1.3 1.2 4.4 2.3 9.3 3.3 12.1 2.6 20.7 5.2 26 7.9 5.3 2.7 9.1 6 11.4 9.9 2.4 4 3.6 8.6 3.5 13.3 0 5.6-1.6 11.2-4.8 15.9-3.3 4.9-7.9 8.7-13.3 11-5.7 2.5-12.9 3.8-21.5 3.8-15.2 0-25.7-2.9-31.6-8.8S286.1 77 285.4 68zM6.3 97.6V8.2h46.1c8.5 0 15.1.7 19.6 2.2 4.4 1.4 8.3 4.3 10.9 8.2 2.9 4.3 4.3 9.3 4.2 14.5.3 8.8-4.2 17.2-11.9 21.6-3 1.7-6.3 2.9-9.7 3.5 2.5.7 5 1.9 7.2 3.3 1.7 1.4 3.1 3 4.4 4.7 1.5 1.7 2.8 3.6 3.9 5.6l13.4 25.9H63L48.2 70.2c-1.9-3.5-3.5-5.8-5-6.9-2-1.4-4.4-2.1-6.8-2.1H34v36.3H6.3zM34 44.4h11.7c2.5-.2 4.9-.6 7.3-1.2 1.8-.3 3.4-1.3 4.5-2.8 2.7-3.6 2.3-8.7-1-11.8-1.8-1.5-5.3-2.3-10.3-2.3H34v18.1zM0 174.2l26.3-1.7c.6 4.3 1.7 7.5 3.5 9.8 2.8 3.6 6.9 5.5 12.2 5.5 3.9 0 7-.9 9.1-2.8 2-1.6 3.2-3.9 3.2-6.4 0-2.4-1.1-4.7-3-6.2-2-1.8-6.7-3.6-14.2-5.2-12.1-2.7-20.8-6.3-25.9-10.9-5.1-4.3-8-10.6-7.8-17.3 0-4.6 1.4-9.2 4-13 3-4.3 7.1-7.7 12-9.6 5.3-2.3 12.7-3.5 22-3.5 11.4 0 20.1 2.1 26.1 6.4s9.5 11 10.6 20.3l-26 1.5c-.7-4-2.1-6.9-4.4-8.8-2.2-1.9-5.3-2.8-9.2-2.7-3.2 0-5.6.7-7.2 2.1-1.6 1.2-2.5 3-2.4 5 0 1.5.8 2.9 2 3.8 1.3 1.2 4.4 2.3 9.3 3.3 12.1 2.6 20.7 5.2 26 7.9 5.3 2.7 9.1 6 11.4 9.9 2.4 4 3.6 8.6 3.6 13.2 0 5.6-1.7 11.1-4.8 15.8-3.3 4.9-7.9 8.7-13.3 11-5.7 2.5-12.9 3.8-21.5 3.8-15.2 0-25.7-2.9-31.6-8.8-5.9-6-9.2-13.4-10-22.4z"></path>
    <path d="M133 167.2l24.2 7.3c-1.3 6.1-4 11.9-7.7 17-3.4 4.5-7.9 8-13 10.3-5.2 2.3-11.8 3.5-19.8 3.5-9.7 0-17.7-1.4-23.8-4.2-6.2-2.8-11.5-7.8-16-14.9-4.5-7.1-6.7-16.2-6.7-27.3 0-14.8 3.9-26.2 11.8-34.1s19-11.9 33.4-11.9c11.3 0 20.1 2.3 26.6 6.8 6.4 4.6 11.2 11.6 14.4 21l-24.4 5.4c-.6-2.1-1.5-4.2-2.7-6-1.5-2.1-3.4-3.7-5.7-4.9-2.3-1.2-4.9-1.7-7.5-1.7-6.3 0-11.1 2.5-14.4 7.6-2.5 3.7-3.8 9.6-3.8 17.6 0 9.9 1.5 16.7 4.5 20.4 3 3.7 7.2 5.5 12.7 5.5 5.3 0 9.3-1.5 12-4.4 2.7-3.1 4.7-7.4 5.9-13zm56.5-52.8h27.6v31.3h30.2v-31.3h27.8v89.4h-27.8v-36.2h-30.2v36.2h-27.6v-89.4z"></path>
    <path d="M271.3 159.1c0-14.6 4.1-26 12.2-34.1 8.1-8.1 19.5-12.2 34-12.2 14.9 0 26.3 4 34.4 12S364 144 364 158.4c0 10.5-1.8 19-5.3 25.7-3.4 6.6-8.7 12-15.2 15.6-6.7 3.7-15 5.6-24.9 5.6-10.1 0-18.4-1.6-25-4.8-6.8-3.4-12.4-8.7-16.1-15.2-4.1-7-6.2-15.7-6.2-26.2zm27.6.1c0 9 1.7 15.5 5 19.5 3.3 3.9 7.9 5.9 13.7 5.9 5.9 0 10.5-1.9 13.8-5.8s4.9-10.8 4.9-20.8c0-8.4-1.7-14.6-5.1-18.4-3.4-3.9-8-5.8-13.8-5.8-5.1-.2-10 2-13.4 5.9-3.4 3.9-5.1 10.4-5.1 19.5zm93.4-.1c0-14.6 4.1-26 12.2-34.1 8.1-8.1 19.5-12.2 34-12.2 14.9 0 26.4 4 34.4 12S485 144 485 158.4c0 10.5-1.8 19-5.3 25.7-3.4 6.6-8.7 12-15.2 15.6-6.7 3.7-15 5.6-24.9 5.6-10.1 0-18.4-1.6-25-4.8-6.8-3.4-12.4-8.7-16.1-15.2-4.1-7-6.2-15.7-6.2-26.2zm27.6.1c0 9 1.7 15.5 5 19.5 3.3 3.9 7.9 5.9 13.7 5.9 5.9 0 10.5-1.9 13.8-5.8 3.3-3.9 4.9-10.8 4.9-20.8 0-8.4-1.7-14.6-5.1-18.4-3.4-3.9-8-5.8-13.8-5.8-5.1-.2-10.1 2-13.4 5.9-3.4 3.9-5.1 10.4-5.1 19.5z"></path>
    <path d="M482.1 114.4h27.6v67.4h43.1v22H482v-89.4z"></path>
    <ellipse transform="rotate(-37.001 420.46 67.88)" cx="420.5" cy="67.9" rx="63" ry="51.8"></ellipse>
    <defs>
      <ellipse id="SVGID_1_" transform="rotate(-37.001 420.46 67.88)" cx="420.5" cy="67.9" rx="63" ry="51.8"></ellipse>
    </defs>
    <clipPath id="SVGID_2_">
      <use xlink:href="#SVGID_1_" overflow="visible"></use>
    </clipPath>
    <g>
      <path transform="rotate(-37.001 420.82 68.353)" d="M330.9-14.2h179.8v165.1H330.9z"></path>
      <g id="Layer_2_1_">
        <defs>
          <path id="SVGID_3_" transform="rotate(-37.001 420.82 68.353)" d="M330.9-14.2h179.8v165.1H330.9z"></path>
        </defs>
        <clipPath id="SVGID_4_">
          <use xlink:href="#SVGID_3_" overflow="visible"></use>
        </clipPath>
        <g id="Layer_1-2">
          <ellipse transform="rotate(-37.001 420.46 67.88)" cx="420.5" cy="67.9" rx="63" ry="51.8"></ellipse>
          <defs>
            <ellipse id="SVGID_5_" transform="rotate(-37.001 420.46 67.88)" cx="420.5" cy="67.9" rx="63" ry="51.8"></ellipse>
          </defs>
          <clipPath id="SVGID_6_">
            <use xlink:href="#SVGID_5_" overflow="visible"></use>
          </clipPath>
          <g>
            <path transform="rotate(-37 420.799 68.802)" d="M357.8 17h125.9v103.7H357.8z"></path>
            <defs>
              <path id="SVGID_7_" transform="rotate(-37 420.799 68.802)" d="M357.8 17h125.9v103.7H357.8z"></path>
            </defs>
            <clipPath id="SVGID_8_">
              <use xlink:href="#SVGID_7_" overflow="visible"></use>
            </clipPath>
            <g>
              <ellipse transform="rotate(-37.001 420.46 67.88)" cx="420.5" cy="67.9" rx="63" ry="51.8"></ellipse>
            </g>
            <path transform="rotate(-37 420.799 68.802)" d="M357.8 17h125.9v103.7H357.8z"></path>
            <ellipse transform="rotate(-37.001 420.46 67.88)" cx="420.5" cy="67.9" rx="63" ry="51.8"></ellipse>
            <path transform="rotate(-37 420.799 68.802)" d="M357.8 17h125.9v103.7H357.8z"></path>
            <defs>
              <path id="SVGID_9_" transform="rotate(-37 420.799 68.802)" d="M357.8 17h125.9v103.7H357.8z"></path>
            </defs>
            <clipPath id="SVGID_10_">
              <use xlink:href="#SVGID_9_" overflow="visible"></use>
            </clipPath>
            <g>
              <ellipse stroke="#fff" transform="rotate(-37.001 420.46 67.88)" cx="420.5" cy="67.9" rx="63" ry="51.8"></ellipse>
            </g>
            <path transform="rotate(-37 420.799 68.802)" d="M357.8 17h125.9v103.7H357.8z"></path>
            <path transform="rotate(-37.001 420.82 68.353)" d="M330.9-14.2h179.8v165.1H330.9z"></path>
          </g>
          <ellipse transform="rotate(-37.001 420.46 67.88)" cx="420.5" cy="67.9" rx="63" ry="51.8"></ellipse>
          <path stroke="#fff" d="M392.4 61.3l10-7 12.3 17.5c2.1 2.8 3.7 5.8 4.9 9.1.7 2.5.5 5.2-.5 7.6-1.3 3-3.4 5.5-6.2 7.3-3.3 2.3-6.1 3.6-8.5 4-2.3.4-4.7 0-6.9-1-2.4-1.2-4.5-2.9-6.1-5.1l8.6-8c.7 1.1 1.6 2.1 2.6 2.9.7.5 1.5.8 2.4.8.7 0 1.4-.3 1.9-.7 1-.6 1.7-1.8 1.6-3-.3-1.7-1-3.4-2.1-4.7l-14-19.7zm30 11.1l9.1-7.2c1 1.2 2.3 2.1 3.7 2.6 2 .6 4.1.2 5.8-1.1 1.2-.8 2.2-1.9 2.6-3.3.6-1.8-.4-3.8-2.2-4.4-.3-.1-.6-.2-.9-.2-1.2-.1-3.3.4-6.4 1.7-5.1 2.1-9.1 2.9-12.1 2.6-2.9-.3-5.6-1.8-7.2-4.3-1.2-1.7-1.8-3.7-1.9-5.7 0-2.3.6-4.6 1.9-6.5 1.9-2.7 4.2-5 7-6.8 4.2-2.9 7.9-4.3 11.1-4.3 3.2 0 6.2 1.5 9 4.6l-9 7.1c-1.8-2.3-5.2-2.8-7.5-1l-.3.3c-1 .6-1.7 1.5-2.1 2.6-.3.8-.1 1.7.4 2.4.4.5 1 .9 1.7.9.8.1 2.2-.3 4.2-1.2 5-2.1 8.8-3.3 11.4-3.7 2.2-.4 4.5-.2 6.6.7 1.9.8 3.5 2.2 4.6 3.9 1.4 2 2.2 4.4 2.3 6.9.1 2.6-.6 5.1-2 7.3-1.8 2.7-4.1 5-6.8 6.8-5.5 3.8-10 5.4-13.6 4.8-3.9-.6-7.1-2.6-9.4-5.5z"></path>
        </g>
      </g>
    </g>
  </symbol>

</svg>

